<svg xmlns="http://www.w3.org/2000/svg" width="48" height="48" viewBox="0 0 48 48" fill="none"><path d="M43 40H5C3.343 40 2 38.657 2 37V11C2 9.343 3.343 8 5 8H32H43C44.657 8 46 9.343 46 11V37C46 38.657 44.657 40 43 40Z" stroke="#13160B" stroke-width="1.5" stroke-linecap="round" stroke-linejoin="round"></path><path d="M26.88 22.4258C28.527 24.9548 27.812 28.3408 25.283 29.9888C22.754 31.6358 19.368 30.9208 17.72 28.3918L19.29 27.3368C20.36 28.9798 22.558 29.4438 24.201 28.3738C25.844 27.3038 26.308 25.1058 25.238 23.4628L26.88 22.4258Z" fill="#13160B"></path><path d="M30.535 20.1051C28.884 17.5781 25.498 16.8671 22.97 18.5171C20.443 20.1681 19.732 23.5541 21.382 26.0821L22.981 25.0701C21.909 23.4291 22.371 21.2301 24.012 20.1581C25.653 19.0861 27.852 19.5481 28.924 21.1891L30.535 20.1051Z" fill="#13160B"></path><path d="M24 36C17.383 36 12 30.617 12 24C12 17.383 17.383 12 24 12C30.617 12 36 17.383 36 24C36 30.617 30.617 36 24 36ZM24 14C18.486 14 14 18.486 14 24C14 29.514 18.486 34 24 34C29.514 34 34 29.514 34 24C34 18.486 29.514 14 24 14Z" fill="#13160B"></path></svg>